<svg width="32" height="32" viewBox="0 0 32 32" fill="none" xmlns="http://www.w3.org/2000/svg">
<path d="M31.7068 30.293L17.4137 16L31.7068 1.70686C32.0812 1.31941 32.0812 0.705031 31.7068 0.317458C31.3231 -0.0797588 30.6901 -0.0907451 30.2929 0.292922L15.9998 14.586L1.70679 0.293044C1.31934 -0.0812237 0.704956 -0.0812237 0.317383 0.293044C-0.0798342 0.676711 -0.0908203 1.30977 0.292847 1.70698L14.5858 16L0.292847 30.2929C0.105347 30.4804 2.5007e-08 30.7347 2.5007e-08 30.9998C-0.000122175 31.5521 0.447632 31.9998 0.999878 32C1.26514 32.0002 1.51953 31.8947 1.70679 31.7069L15.9998 17.4139L30.2929 31.707C30.4801 31.8948 30.7346 32.0003 30.9999 32C31.2649 31.9998 31.519 31.8946 31.7065 31.7072C32.0972 31.3167 32.0973 30.6835 31.7068 30.293Z" fill="#FF0505"/>
</svg>
